<svg id="visual" viewBox="0 0 960 300" width="960" height="300" xmlns="http://www.w3.org/2000/svg" xmlns:xlink="http://www.w3.org/1999/xlink" version="1.1"><rect x="0" y="0" width="960" height="300" fill="#525353"></rect><path d="M0 223L7 219.2C14 215.3 28 207.7 41.8 198.7C55.7 189.7 69.3 179.3 83.2 181.8C97 184.3 111 199.7 125 198.8C139 198 153 181 167 180.5C181 180 195 196 208.8 204C222.7 212 236.3 212 250.2 213.5C264 215 278 218 292 219C306 220 320 219 334 214.3C348 209.7 362 201.3 375.8 194.5C389.7 187.7 403.3 182.3 417.2 177.8C431 173.3 445 169.7 459 171.3C473 173 487 180 501 179.8C515 179.7 529 172.3 542.8 175.2C556.7 178 570.3 191 584.2 197.8C598 204.7 612 205.3 626 199.8C640 194.3 654 182.7 668 175.8C682 169 696 167 709.8 175.8C723.7 184.7 737.3 204.3 751.2 214.2C765 224 779 224 793 216.5C807 209 821 194 835 186.3C849 178.7 863 178.3 876.8 177C890.7 175.7 904.3 173.3 918.2 174.7C932 176 946 181 953 183.5L960 186L960 301L953 301C946 301 932 301 918.2 301C904.3 301 890.7 301 876.8 301C863 301 849 301 835 301C821 301 807 301 793 301C779 301 765 301 751.2 301C737.3 301 723.7 301 709.8 301C696 301 682 301 668 301C654 301 640 301 626 301C612 301 598 301 584.2 301C570.3 301 556.7 301 542.8 301C529 301 515 301 501 301C487 301 473 301 459 301C445 301 431 301 417.2 301C403.3 301 389.7 301 375.8 301C362 301 348 301 334 301C320 301 306 301 292 301C278 301 264 301 250.2 301C236.3 301 222.7 301 208.8 301C195 301 181 301 167 301C153 301 139 301 125 301C111 301 97 301 83.2 301C69.3 301 55.7 301 41.8 301C28 301 14 301 7 301L0 301Z" fill="#929292"></path><path d="M0 183L7 187C14 191 28 199 41.8 205.7C55.7 212.3 69.3 217.7 83.2 222.5C97 227.3 111 231.7 125 232.2C139 232.7 153 229.3 167 221.7C181 214 195 202 208.8 202.8C222.7 203.7 236.3 217.3 250.2 219.7C264 222 278 213 292 211.8C306 210.7 320 217.3 334 222.8C348 228.3 362 232.7 375.8 230C389.7 227.3 403.3 217.7 417.2 209.7C431 201.7 445 195.3 459 200.3C473 205.3 487 221.7 501 221.7C515 221.7 529 205.3 542.8 196.7C556.7 188 570.3 187 584.2 193.3C598 199.7 612 213.3 626 221C640 228.7 654 230.3 668 226C682 221.7 696 211.3 709.8 203C723.7 194.7 737.3 188.3 751.2 186.3C765 184.3 779 186.7 793 189.2C807 191.7 821 194.3 835 201.8C849 209.3 863 221.7 876.8 227C890.7 232.3 904.3 230.7 918.2 227.2C932 223.7 946 218.3 953 215.7L960 213L960 301L953 301C946 301 932 301 918.2 301C904.3 301 890.7 301 876.8 301C863 301 849 301 835 301C821 301 807 301 793 301C779 301 765 301 751.2 301C737.3 301 723.7 301 709.8 301C696 301 682 301 668 301C654 301 640 301 626 301C612 301 598 301 584.2 301C570.3 301 556.7 301 542.8 301C529 301 515 301 501 301C487 301 473 301 459 301C445 301 431 301 417.2 301C403.3 301 389.7 301 375.8 301C362 301 348 301 334 301C320 301 306 301 292 301C278 301 264 301 250.2 301C236.3 301 222.7 301 208.8 301C195 301 181 301 167 301C153 301 139 301 125 301C111 301 97 301 83.2 301C69.3 301 55.7 301 41.8 301C28 301 14 301 7 301L0 301Z" fill="#787878"></path><path d="M0 212L7 214.8C14 217.7 28 223.3 41.8 224.3C55.7 225.3 69.3 221.7 83.2 221C97 220.3 111 222.7 125 226.3C139 230 153 235 167 239.2C181 243.3 195 246.7 208.8 245.2C222.7 243.7 236.3 237.3 250.2 229.3C264 221.3 278 211.7 292 213.8C306 216 320 230 334 232.7C348 235.3 362 226.7 375.8 225.5C389.7 224.3 403.3 230.7 417.2 232.3C431 234 445 231 459 227C473 223 487 218 501 214.8C515 211.7 529 210.3 542.8 209.2C556.7 208 570.3 207 584.2 209.3C598 211.7 612 217.3 626 222C640 226.7 654 230.3 668 228C682 225.7 696 217.3 709.8 218.2C723.7 219 737.3 229 751.2 234.7C765 240.3 779 241.7 793 243.5C807 245.3 821 247.7 835 242.3C849 237 863 224 876.8 224C890.7 224 904.3 237 918.2 243.3C932 249.7 946 249.3 953 249.2L960 249L960 301L953 301C946 301 932 301 918.2 301C904.3 301 890.7 301 876.8 301C863 301 849 301 835 301C821 301 807 301 793 301C779 301 765 301 751.2 301C737.3 301 723.7 301 709.8 301C696 301 682 301 668 301C654 301 640 301 626 301C612 301 598 301 584.2 301C570.3 301 556.7 301 542.8 301C529 301 515 301 501 301C487 301 473 301 459 301C445 301 431 301 417.2 301C403.3 301 389.7 301 375.8 301C362 301 348 301 334 301C320 301 306 301 292 301C278 301 264 301 250.2 301C236.3 301 222.7 301 208.8 301C195 301 181 301 167 301C153 301 139 301 125 301C111 301 97 301 83.2 301C69.3 301 55.7 301 41.8 301C28 301 14 301 7 301L0 301Z" fill="#5f5f5f"></path><path d="M0 242L7 237.8C14 233.7 28 225.3 41.8 223.7C55.7 222 69.3 227 83.2 229.5C97 232 111 232 125 231.8C139 231.7 153 231.3 167 230.2C181 229 195 227 208.8 229C222.7 231 236.3 237 250.2 237.7C264 238.3 278 233.7 292 229.7C306 225.7 320 222.3 334 225.7C348 229 362 239 375.8 240.2C389.7 241.3 403.3 233.7 417.2 229.8C431 226 445 226 459 224.8C473 223.7 487 221.3 501 224.3C515 227.3 529 235.7 542.8 241.3C556.7 247 570.3 250 584.2 246.2C598 242.3 612 231.7 626 232.8C640 234 654 247 668 247.7C682 248.3 696 236.7 709.8 231.8C723.7 227 737.3 229 751.2 232.5C765 236 779 241 793 240.5C807 240 821 234 835 232.3C849 230.7 863 233.3 876.8 233C890.7 232.7 904.3 229.3 918.2 227C932 224.7 946 223.3 953 222.7L960 222L960 301L953 301C946 301 932 301 918.2 301C904.3 301 890.7 301 876.8 301C863 301 849 301 835 301C821 301 807 301 793 301C779 301 765 301 751.2 301C737.3 301 723.7 301 709.8 301C696 301 682 301 668 301C654 301 640 301 626 301C612 301 598 301 584.2 301C570.3 301 556.7 301 542.8 301C529 301 515 301 501 301C487 301 473 301 459 301C445 301 431 301 417.2 301C403.3 301 389.7 301 375.8 301C362 301 348 301 334 301C320 301 306 301 292 301C278 301 264 301 250.2 301C236.3 301 222.7 301 208.8 301C195 301 181 301 167 301C153 301 139 301 125 301C111 301 97 301 83.2 301C69.3 301 55.7 301 41.8 301C28 301 14 301 7 301L0 301Z" fill="#474747"></path><path d="M0 261L7 261C14 261 28 261 41.8 259.8C55.7 258.7 69.3 256.3 83.2 251.7C97 247 111 240 125 237.7C139 235.3 153 237.7 167 241.5C181 245.3 195 250.7 208.8 255.7C222.7 260.7 236.3 265.3 250.2 265.2C264 265 278 260 292 256.5C306 253 320 251 334 249.3C348 247.7 362 246.3 375.8 250.2C389.7 254 403.3 263 417.2 263.5C431 264 445 256 459 254.5C473 253 487 258 501 260.2C515 262.3 529 261.7 542.8 259C556.7 256.3 570.3 251.7 584.2 252.5C598 253.3 612 259.7 626 258C640 256.3 654 246.7 668 246.7C682 246.7 696 256.3 709.8 258.8C723.7 261.3 737.3 256.7 751.2 254C765 251.3 779 250.7 793 250.5C807 250.3 821 250.7 835 252.8C849 255 863 259 876.8 259.5C890.7 260 904.3 257 918.2 256.7C932 256.3 946 258.7 953 259.8L960 261L960 301L953 301C946 301 932 301 918.2 301C904.3 301 890.7 301 876.8 301C863 301 849 301 835 301C821 301 807 301 793 301C779 301 765 301 751.2 301C737.3 301 723.7 301 709.8 301C696 301 682 301 668 301C654 301 640 301 626 301C612 301 598 301 584.2 301C570.3 301 556.7 301 542.8 301C529 301 515 301 501 301C487 301 473 301 459 301C445 301 431 301 417.2 301C403.3 301 389.7 301 375.8 301C362 301 348 301 334 301C320 301 306 301 292 301C278 301 264 301 250.2 301C236.3 301 222.7 301 208.8 301C195 301 181 301 167 301C153 301 139 301 125 301C111 301 97 301 83.2 301C69.3 301 55.7 301 41.8 301C28 301 14 301 7 301L0 301Z" fill="#313131"></path><path d="M0 264L7 261.7C14 259.3 28 254.7 41.8 253.7C55.7 252.7 69.3 255.3 83.2 258.5C97 261.7 111 265.3 125 265.5C139 265.7 153 262.3 167 263.8C181 265.3 195 271.7 208.8 270.8C222.7 270 236.3 262 250.2 258.3C264 254.7 278 255.3 292 259C306 262.7 320 269.3 334 269C348 268.7 362 261.3 375.8 259.8C389.7 258.3 403.3 262.7 417.2 265.5C431 268.3 445 269.7 459 271.8C473 274 487 277 501 276.7C515 276.3 529 272.7 542.8 271C556.7 269.3 570.3 269.7 584.2 271.7C598 273.7 612 277.3 626 276.7C640 276 654 271 668 269C682 267 696 268 709.8 266.3C723.7 264.7 737.3 260.3 751.2 257.8C765 255.3 779 254.7 793 256.7C807 258.7 821 263.3 835 263.7C849 264 863 260 876.8 262C890.7 264 904.3 272 918.2 273.7C932 275.3 946 270.7 953 268.3L960 266L960 301L953 301C946 301 932 301 918.2 301C904.3 301 890.7 301 876.8 301C863 301 849 301 835 301C821 301 807 301 793 301C779 301 765 301 751.2 301C737.3 301 723.7 301 709.8 301C696 301 682 301 668 301C654 301 640 301 626 301C612 301 598 301 584.2 301C570.3 301 556.7 301 542.8 301C529 301 515 301 501 301C487 301 473 301 459 301C445 301 431 301 417.2 301C403.3 301 389.7 301 375.8 301C362 301 348 301 334 301C320 301 306 301 292 301C278 301 264 301 250.2 301C236.3 301 222.7 301 208.8 301C195 301 181 301 167 301C153 301 139 301 125 301C111 301 97 301 83.2 301C69.3 301 55.7 301 41.8 301C28 301 14 301 7 301L0 301Z" fill="#1c1c1c"></path><path d="M0 284L7 284.3C14 284.7 28 285.3 41.8 284.3C55.7 283.3 69.3 280.7 83.2 281.8C97 283 111 288 125 286.3C139 284.7 153 276.3 167 273.5C181 270.7 195 273.3 208.8 277C222.7 280.7 236.3 285.3 250.2 287.7C264 290 278 290 292 288.7C306 287.3 320 284.7 334 282.3C348 280 362 278 375.8 276.5C389.7 275 403.3 274 417.2 275.8C431 277.7 445 282.3 459 282.2C473 282 487 277 501 275.8C515 274.7 529 277.3 542.8 276.8C556.7 276.3 570.3 272.7 584.2 273.2C598 273.7 612 278.3 626 281.2C640 284 654 285 668 286.7C682 288.3 696 290.7 709.8 289C723.7 287.3 737.3 281.7 751.2 277.7C765 273.7 779 271.3 793 273C807 274.7 821 280.3 835 281.5C849 282.7 863 279.3 876.8 276.2C890.7 273 904.3 270 918.2 270.5C932 271 946 275 953 277L960 279L960 301L953 301C946 301 932 301 918.2 301C904.3 301 890.7 301 876.8 301C863 301 849 301 835 301C821 301 807 301 793 301C779 301 765 301 751.2 301C737.3 301 723.7 301 709.8 301C696 301 682 301 668 301C654 301 640 301 626 301C612 301 598 301 584.2 301C570.3 301 556.7 301 542.8 301C529 301 515 301 501 301C487 301 473 301 459 301C445 301 431 301 417.2 301C403.3 301 389.7 301 375.8 301C362 301 348 301 334 301C320 301 306 301 292 301C278 301 264 301 250.2 301C236.3 301 222.7 301 208.8 301C195 301 181 301 167 301C153 301 139 301 125 301C111 301 97 301 83.2 301C69.3 301 55.7 301 41.8 301C28 301 14 301 7 301L0 301Z" fill="#000000"></path></svg>